<svg width="157" height="39" viewBox="0 0 157 39" fill="none" xmlns="http://www.w3.org/2000/svg">
<g id="Brands">
<g id="992px">
<g id="LOGOS">
<g id="ppcom-white-copy-2">
<g id="Group">
<path id="Shape" d="M120.813 8.93945H112.195C111.607 8.93945 111.101 9.36327 111.019 9.95115L107.531 32.0307C107.463 32.4682 107.805 32.8647 108.242 32.8647H112.661C113.071 32.8647 113.426 32.5639 113.495 32.1538L114.48 25.8922C114.575 25.3043 115.068 24.8805 115.67 24.8805H118.392C124.068 24.8805 127.351 22.1325 128.199 16.6912C128.582 14.3124 128.213 12.4394 127.105 11.1406C125.874 9.70506 123.712 8.93945 120.826 8.93945H120.813ZM121.811 17.0057C121.346 20.0955 118.98 20.0955 116.696 20.0955H115.396L116.313 14.326C116.367 13.9706 116.668 13.7245 117.024 13.7245H117.626C119.185 13.7245 120.649 13.7245 121.415 14.6132C121.866 15.1463 122.003 15.9256 121.839 17.0193L121.811 17.0057Z" fill="#A1A7B3"/>
<path id="Shape_2" d="M59.3293 8.93945H50.7121C50.1239 8.93945 49.6178 9.36327 49.5221 9.95115L46.0341 32.0307C45.9657 32.4682 46.3077 32.8647 46.7454 32.8647H50.8625C51.4507 32.8647 51.9568 32.4409 52.0525 31.853L52.9963 25.8922C53.0921 25.3043 53.5845 24.8805 54.1726 24.8805H56.8946C62.571 24.8805 65.8538 22.1325 66.7018 16.6912C67.0848 14.3124 66.7155 12.4394 65.6075 11.1406C64.3765 9.70506 62.2017 8.93945 59.3293 8.93945ZM60.3278 17.0057C59.8627 20.0955 57.4964 20.0955 55.2122 20.0955H53.9127L54.8292 14.326C54.8839 13.9706 55.1848 13.7245 55.5404 13.7245H56.1423C57.7016 13.7245 59.1651 13.7245 59.9311 14.6132C60.3825 15.1463 60.5193 15.9256 60.3551 17.0193L60.3278 17.0057Z" fill="#A1A7B3"/>
<path id="Shape_3" d="M85.0993 16.91H80.9685C80.6129 16.91 80.312 17.1698 80.2573 17.5116L80.0794 18.66L79.7922 18.2362C78.9031 16.9374 76.9061 16.5135 74.9228 16.5135C70.368 16.5135 66.4697 19.9588 65.7037 24.8122C65.3071 27.2321 65.8679 29.5289 67.2357 31.1421C68.4941 32.6187 70.2996 33.2339 72.4334 33.2339C76.1128 33.2339 78.1508 30.8687 78.1508 30.8687L77.973 32.0171C77.9046 32.4546 78.2466 32.8511 78.6843 32.8511H82.4047C82.9929 32.8511 83.499 32.4273 83.581 31.8394L85.8106 17.7303C85.879 17.2928 85.537 16.8964 85.0993 16.8964V16.91ZM79.3408 24.9352C78.9442 27.2867 77.0703 28.8726 74.6766 28.8726C73.4729 28.8726 72.5154 28.4898 71.8999 27.7652C71.2844 27.0407 71.0656 26.0153 71.257 24.8669C71.6264 22.529 73.5276 20.9021 75.8803 20.9021C77.0566 20.9021 78.0004 21.2849 78.6296 22.0232C79.2588 22.7615 79.505 23.8005 79.3271 24.9352H79.3408Z" fill="#A1A7B3"/>
<path id="Shape_4" d="M146.582 16.91H142.451C142.095 16.91 141.794 17.1698 141.74 17.5116L141.562 18.66L141.275 18.2362C140.386 16.9374 138.389 16.5135 136.405 16.5135C131.85 16.5135 127.952 19.9588 127.186 24.8122C126.789 27.2321 127.35 29.5289 128.718 31.1421C129.976 32.6187 131.782 33.2339 133.916 33.2339C137.595 33.2339 139.633 30.8687 139.633 30.8687L139.455 32.0171C139.387 32.4546 139.729 32.8511 140.167 32.8511H143.887C144.475 32.8511 144.981 32.4273 145.063 31.8394L147.293 17.7303C147.361 17.2928 147.019 16.8964 146.582 16.8964V16.91ZM140.823 24.9352C140.427 27.2867 138.553 28.8726 136.159 28.8726C134.955 28.8726 133.998 28.4898 133.382 27.7652C132.767 27.0407 132.548 26.0153 132.739 24.8669C133.109 22.529 135.01 20.9021 137.363 20.9021C138.539 20.9021 139.483 21.2849 140.112 22.0232C140.741 22.7615 140.987 23.8005 140.81 24.9352H140.823Z" fill="#A1A7B3"/>
<path id="Shape_5" d="M107.08 16.91H102.935C102.539 16.91 102.169 17.1014 101.95 17.4296L96.233 25.8512L93.812 17.7577C93.6615 17.2518 93.1964 16.91 92.663 16.91H88.5869C88.0945 16.91 87.7525 17.3885 87.903 17.8534L92.4715 31.2515L88.1766 37.308C87.8346 37.7865 88.1766 38.4427 88.7647 38.4427H92.9092C93.3059 38.4427 93.6752 38.2513 93.894 37.9232L107.695 18.0311C108.024 17.5526 107.695 16.91 107.107 16.91H107.08Z" fill="#A1A7B3"/>
<path id="Shape_6" d="M151.438 9.55467L147.895 32.0307C147.827 32.4682 148.169 32.8647 148.607 32.8647H152.163C152.751 32.8647 153.257 32.4409 153.353 31.853L156.841 9.77342C156.909 9.33593 156.567 8.93945 156.13 8.93945H152.149C151.794 8.93945 151.493 9.19921 151.438 9.541V9.55467Z" fill="#A1A7B3"/>
</g>
<g id="Group_2">
<path id="Shape_7" opacity="0.68" d="M29.0597 10.1153C29.5247 7.1622 29.0597 5.15248 27.4593 3.33416C25.7085 1.32444 22.5352 0.476807 18.4865 0.476807H6.72326C5.88889 0.476807 5.1913 1.07836 5.05452 1.89865L0.14407 33.0561C0.0483235 33.6714 0.527058 34.2319 1.14257 34.2319H8.41934L7.91325 37.4174C7.83118 37.9506 8.24153 38.4427 8.78865 38.4427H14.9165C15.6414 38.4427 16.2569 37.9095 16.3663 37.1986L16.4211 36.8842L17.57 29.5562L17.6384 29.1461C17.7478 28.4352 18.3634 27.902 19.0883 27.902H20.0047C25.941 27.902 30.5779 25.4821 31.9457 18.4959C32.5065 15.5702 32.2193 13.1367 30.7147 11.4277C30.2633 10.9082 29.7025 10.4844 29.0323 10.1289" fill="#A1A7B3"/>
<path id="Shape_8" opacity="0.7" d="M29.0597 10.1153C29.5247 7.1622 29.0597 5.15248 27.4593 3.33416C25.7085 1.32444 22.5352 0.476807 18.4865 0.476807H6.72326C5.88889 0.476807 5.1913 1.07836 5.05452 1.89865L0.14407 33.0561C0.0483235 33.6714 0.527059 34.2319 1.14257 34.2319H8.41935L10.2385 22.6247L10.1838 22.9939C10.3069 22.1736 11.0182 21.572 11.8389 21.572H15.2858C22.0701 21.572 27.3772 18.8104 28.9366 10.8262C28.9776 10.5938 29.0186 10.3613 29.0597 10.1426" fill="#A1A7B3"/>
<path id="Shape_9" d="M12.2082 10.1563C12.2903 9.6641 12.6049 9.25395 13.0289 9.04888C13.2204 8.95318 13.4392 8.89849 13.6581 8.89849H22.8771C23.9714 8.89849 24.9836 8.96685 25.9274 9.11724C26.1873 9.15825 26.4471 9.21294 26.707 9.26762C26.9532 9.32231 27.1994 9.39067 27.4456 9.45903C27.5687 9.50004 27.6782 9.52738 27.8013 9.5684C28.2526 9.71879 28.6904 9.89652 29.0733 10.1153C29.5384 7.1622 29.0733 5.15248 27.473 3.33416C25.7222 1.32444 22.5489 0.476807 18.5001 0.476807H6.72326C5.88889 0.476807 5.1913 1.07836 5.05452 1.89865L0.14407 33.0561C0.0483235 33.6714 0.527059 34.2319 1.14257 34.2319H8.41935L10.2385 22.6247L12.1945 10.1563H12.2082Z" fill="#A1A7B3"/>
</g>
</g>
</g>
</g>
</g>
</svg>
