<svg width="36" height="46" viewBox="0 0 36 46" fill="none" xmlns="http://www.w3.org/2000/svg">
<g id="Group">
<path id="Vector" d="M17.9998 15.45C19.1998 15.45 20.3248 15.925 21.1748 16.775L29.7748 25.375C31.5248 27.125 31.5248 30 29.7748 31.75L21.1748 40.35C20.3248 41.2 19.1998 41.675 17.9998 41.675C16.7998 41.675 15.6748 41.2 14.8248 40.35L6.22481 31.75C4.47481 30 4.47481 27.125 6.22481 25.375L14.8248 16.775C15.6748 15.925 16.7998 15.45 17.9998 15.45ZM17.9998 11.225C15.7748 11.225 13.5248 12.075 11.8248 13.775L3.2248 22.375C-0.175195 25.775 -0.175195 31.325 3.2248 34.725L11.8248 43.325C13.5248 45.025 15.7748 45.875 17.9998 45.875C20.2248 45.875 22.4748 45.025 24.1748 43.325L32.7748 34.725C36.1748 31.325 36.1748 25.775 32.7748 22.375L24.1748 13.775C22.4748 12.075 20.2248 11.225 17.9998 11.225Z" fill="#FB6514"/>
<path id="Vector_2" d="M17.9998 4.85C19.1998 4.85 20.3248 5.32499 21.1748 6.17499L29.7748 14.775C31.5248 16.525 31.5248 19.4 29.7748 21.15L21.1748 29.75C20.3248 30.6 19.1998 31.075 17.9998 31.075C16.7998 31.075 15.6748 30.6 14.8248 29.75L6.22481 21.15C4.47481 19.4 4.47481 16.525 6.22481 14.775L14.8248 6.17499C15.6748 5.32499 16.7998 4.85 17.9998 4.85ZM17.9998 0.625C15.7748 0.625 13.5248 1.475 11.8248 3.175L3.2248 11.775C-0.175195 15.175 -0.175195 20.725 3.2248 24.125L11.8248 32.725C13.5248 34.425 15.7748 35.275 17.9998 35.275C20.2248 35.275 22.4748 34.425 24.1748 32.725L32.7748 24.125C36.1748 20.725 36.1748 15.175 32.7748 11.775L24.1748 3.175C22.4748 1.475 20.2248 0.625 17.9998 0.625Z" fill="#FB6514"/>
</g>
</svg>
