<svg width="179" height="59" viewBox="0 0 179 59" fill="none" xmlns="http://www.w3.org/2000/svg">
<g id="Layer_1" clip-path="url(#clip0_2338_7572)">
<path id="Vector" d="M43.4799 20.7546C36.9942 20.7746 30.5086 20.7746 24.0211 20.7565C23.3958 20.7565 23.2642 21.0194 23.2714 21.5726C23.2931 23.174 23.275 24.7755 23.284 26.3769C23.284 26.5746 23.3525 26.7705 23.403 27.0461H38.0016C38.1457 29.6614 36.304 33.6532 34.0604 35.5702C28.8921 39.9846 23.0263 40.5921 16.9425 38.1619C9.13416 35.0424 5.26511 26.3588 7.62943 18.0142C10.4857 7.92502 22.3253 3.09895 31.3465 8.37299C32.4476 9.01683 33.4459 9.83477 34.2947 10.4315C35.7742 9.07124 37.2357 7.73096 38.7927 6.30001C34.9399 2.62378 30.5698 0.532665 25.488 0.0955804C18.7482 -0.482968 12.8464 1.5356 7.75197 6.04973C1.26991 11.7899 -1.37013 21.2606 1.22846 29.4891C4.67943 40.4144 15.9154 47.8775 28.4902 45.1933C39.5009 42.8428 45.7631 33.2542 44.2674 21.4819C44.2061 20.9959 44.0421 20.7546 43.4799 20.7565V20.7546Z" fill="#A1A7B3"/>
<path id="Vector_2" d="M138.313 17.2839H132.294V19.56C132.068 19.444 131.95 19.4131 131.872 19.3406C128.113 15.7732 123.739 15.4304 119.263 17.3964C109.568 21.6566 107.371 34.2522 114.884 41.6918C119.885 46.6448 127.985 47.1417 132.007 42.468C132.038 42.4317 132.117 42.4372 132.279 42.3991C132.393 44.5246 132.497 46.6448 131.602 48.6017C131.113 49.6663 130.447 50.7708 129.571 51.5107C126.291 54.2783 121.067 53.5747 118.414 50.1161C117.911 49.4613 117.513 48.7232 117.034 47.9742C115.226 48.7323 113.462 49.4722 111.537 50.2793C111.914 50.9812 112.199 51.5742 112.536 52.1346C117.493 60.3486 127.498 60.3214 132.919 56.4456C136.642 53.7832 138.197 49.8549 138.286 45.4859C138.471 36.3035 138.367 27.1174 138.378 17.9314C138.378 17.7264 138.338 17.5215 138.313 17.2857V17.2839ZM128.607 38.9368C125.513 40.8248 121.197 39.9144 118.796 36.9346C116.169 33.6737 116.138 28.4232 118.778 25.1533C120.76 22.6994 123.348 21.6276 126.448 22.2623C129.493 22.8862 131.337 24.9556 132.254 27.8592C132.577 28.8821 132.661 29.9793 132.854 31.0439C132.67 34.3901 131.524 37.1577 128.607 38.9387V38.9368Z" fill="#A1A7B3"/>
<path id="Vector_3" d="M93.2044 16.2411C84.7978 16.1903 78.395 22.6867 78.4004 31.1437C78.5139 39.1944 84.5707 45.8105 93.2062 45.7543C101.703 45.6981 107.688 39.2851 107.832 31.3432C107.994 22.3965 101.198 16.29 93.2044 16.2429V16.2411ZM97.2987 38.6467C93.0981 41.2456 87.618 39.5172 85.7493 34.9142C85.2411 33.6628 85.0825 32.2663 84.7635 30.9369C84.8392 30.9188 84.9131 30.9007 84.9888 30.8825C84.7887 26.8744 87.5243 23.2907 91.0509 22.4038C95.6372 21.2503 99.9262 23.9544 101.049 28.6916C101.993 32.678 100.488 36.6734 97.2987 38.6485V38.6467Z" fill="#A1A7B3"/>
<path id="Vector_4" d="M61.1352 16.2864C52.3375 16.2991 46.4645 23.1292 46.515 30.9949C46.4681 39.1889 52.8601 45.6055 61.0379 45.7035C69.1923 45.8014 75.8563 39.3358 75.8509 30.9967C75.8473 23.3214 70.1708 16.2737 61.1352 16.2846V16.2864ZM66.1504 38.1388C64.7123 39.3376 62.9841 39.9089 61.1568 39.8908C56.1669 39.8418 52.3591 35.3059 52.9682 30.1371C53.4367 26.1652 55.6461 23.3396 59.0196 22.3929C63.8491 21.0399 68.8282 24.5221 69.3202 29.5476C69.6536 32.9518 68.8409 35.8972 66.1486 38.1388H66.1504Z" fill="#A1A7B3"/>
<path id="Vector_5" d="M159.309 35.4274C162.54 34.0745 165.773 32.7179 169.008 31.3685C172.242 30.0192 175.481 28.6789 178.76 27.3187C178.636 26.9668 178.569 26.7075 178.458 26.4699C177.897 25.2693 177.414 24.0197 176.744 22.8844C172.529 15.7477 163.681 14.0393 157.256 19.2408C152.875 22.7882 151.432 27.6669 152.164 33.1169C153.767 45.0651 166.488 48.7431 174.522 43.2097C176.088 42.1306 177.384 40.7885 178.503 39.2016C176.816 38.0753 175.219 37.0071 173.569 35.9044C169.799 41.8168 161.397 40.8792 159.307 35.4274H159.309ZM164.259 22.197C167.53 21.3754 170.705 23.189 171.145 25.1115C166.886 26.8925 162.616 28.6789 158.318 30.4744C157.755 26.9668 160.565 23.1238 164.257 22.197H164.259Z" fill="#A1A7B3"/>
<path id="Vector_6" d="M142.766 44.7459H149.087V1.58875H142.766V44.7459Z" fill="#A1A7B3"/>
</g>
<defs>
<clipPath id="clip0_2338_7572">
<rect width="178.521" height="58.9684" fill="white" transform="translate(0.239258)"/>
</clipPath>
</defs>
</svg>
