<svg width="173" height="36" viewBox="0 0 173 36" fill="none" xmlns="http://www.w3.org/2000/svg">
<g id="Meta" clip-path="url(#clip0_2338_7579)">
<path id="Vector" d="M8.39192 35.7029C7.82174 35.5503 7.25156 35.4358 6.69405 35.2451C2.8675 33.9859 0.878204 31.086 0.371376 27.3467C-0.705632 19.4103 1.04292 12.0589 6.04784 5.69951C8.56931 2.50711 11.889 0.624741 16.1717 1.01902C18.8959 1.2734 21.1513 2.49439 23.1786 4.23685C24.5344 5.40698 25.9282 6.52622 27.2966 7.67091L26.9798 8.20509C27.5247 7.54372 28.0568 6.88235 28.6143 6.23369C30.2108 4.38948 31.9214 2.68517 34.2021 1.70583C38.016 0.0651179 42.6788 1.36243 45.9352 4.91095C49.8124 9.14628 51.675 14.2592 52.2072 19.8554C52.4479 22.361 52.4986 24.9429 52.1311 27.4103C51.5229 31.5058 49.445 34.6346 45.0989 35.7029H41.7665C38.5101 34.978 36.1661 32.943 34.4048 30.2848C31.8454 26.431 29.4633 22.4628 27.0052 18.5454C26.7898 18.202 26.5617 17.8713 26.2576 17.4134C25.9535 17.9222 25.7508 18.2529 25.548 18.5963C23.7361 21.6996 22.0129 24.8666 20.0743 27.8937C17.8443 31.3786 15.4115 34.7109 10.9894 35.7029H8.36658H8.39192ZM47.633 23.175C47.3163 21.0255 47.1262 18.8507 46.6701 16.7266C45.9225 13.2799 44.6301 10.0747 42.0326 7.54372C39.2704 4.84735 35.9507 4.70745 33.1631 7.35294C31.9087 8.53578 30.9457 10.0239 29.8941 11.3975C29.742 11.601 29.7547 12.097 29.8941 12.326C32.6183 16.7393 35.3298 21.1527 38.13 25.5153C38.9156 26.7362 39.8279 27.9318 40.8796 28.9239C43.0589 30.997 46.1379 30.1576 46.9742 27.2832C47.3543 25.9731 47.4176 24.5741 47.633 23.175ZM23.8502 13.0891C22.1269 11.3085 20.6191 9.43881 18.7946 7.96344C17.8316 7.18759 16.3491 6.79331 15.082 6.72972C12.6619 6.60253 11.1034 8.23053 9.7857 10.0493C7.581 13.0764 6.50399 16.5231 5.99716 20.1734C5.65505 22.6917 5.47766 25.21 6.45331 27.6647C7.07417 29.2418 8.2272 30.0177 9.92507 30.0431C11.8257 30.0686 13.0801 28.9239 14.043 27.563C17.3248 22.857 20.5051 18.0748 23.8628 13.1018L23.8502 13.0891Z" fill="#A1A7B3"/>
<path id="Vector_2" d="M158.147 35.7032C154.941 34.9528 152.306 33.4138 150.519 30.5267C146.946 24.7397 148.251 16.0401 153.205 12.11C156.88 9.18467 164.115 8.94302 167.371 13.0893C167.46 13.2038 167.599 13.2674 167.853 13.4582V10.4947H172.921V35.2199H167.84V31.6841C166.028 34.1133 163.722 35.08 161.238 35.6905H158.134L158.147 35.7032ZM167.751 22.8319C167.751 22.8319 167.84 22.8319 167.891 22.8319C167.751 21.3819 167.954 19.7921 167.396 18.5329C165.547 14.323 159.553 13.2419 156.196 16.3962C153.699 18.7491 153.484 21.7889 153.978 24.8796C154.675 29.2166 157.387 31.2771 161.733 30.9718C165.268 30.7302 167.751 28.1101 167.751 24.6379C167.751 24.0401 167.751 23.4551 167.751 22.8573V22.8319Z" fill="#A1A7B3"/>
<path id="Vector_3" d="M114.268 35.7031C113.508 35.5124 112.735 35.3343 111.988 35.1181C107.211 33.7572 103.891 29.4201 103.549 24.1673C103.334 20.7078 103.891 17.4391 105.994 14.5901C108.896 10.66 113.863 8.94297 118.741 10.3039C123.619 11.6648 125.849 15.3278 126.648 20.021C126.901 21.5218 126.888 23.0607 127.015 24.7015H108.833C109.301 27.3342 110.391 29.471 112.824 30.4503C116.726 32.0274 120.287 31.1498 123.556 28.3644C124.468 29.4837 125.381 30.6029 126.344 31.7858C124.24 33.8971 121.668 34.9146 118.868 35.4742C118.602 35.5251 118.348 35.6268 118.095 35.7031H114.281H114.268ZM108.858 20.7587H121.605C121.845 17.4136 119.501 14.7554 116.042 14.3993C112.431 14.0177 109.377 16.6632 108.845 20.7587H108.858Z" fill="#A1A7B3"/>
<path id="Vector_4" d="M140.737 35.7032C139.267 35.1563 137.658 34.8256 136.366 34.0116C134.338 32.727 133.654 30.514 133.566 28.25C133.414 24.2945 133.439 20.3263 133.401 16.3708C133.401 15.9002 133.401 15.4423 133.401 14.8445H128.611V10.5329H133.35V3.4104H138.545V10.4566H145.945V14.7936H138.583C138.583 15.7348 138.583 16.5615 138.583 17.3755C138.583 20.2627 138.583 23.1626 138.583 26.0497C138.583 26.7238 138.634 27.3979 138.773 28.0465C139.229 30.2342 140.408 31.0736 142.942 31.01C143.93 30.9846 144.906 30.8574 146.021 30.7683C146.021 32.0529 146.059 33.3121 145.983 34.5585C145.983 34.7747 145.565 35.0927 145.299 35.169C144.424 35.398 143.525 35.5251 142.638 35.6905H140.725L140.737 35.7032Z" fill="#A1A7B3"/>
<path id="Vector_5" d="M81.2109 22.1196C84.784 15.6713 88.2811 9.41366 91.7275 3.13062C92.171 2.32934 92.6272 1.98594 93.5648 2.02409C95.2627 2.11312 96.9605 2.04953 98.7218 2.04953V35.0291H93.4254V10.4057C93.3367 10.393 93.248 10.3676 93.1593 10.3548C92.9693 10.6728 92.7665 10.9908 92.5765 11.3087C89.7763 16.3199 86.976 21.3311 84.2011 26.3677C83.8084 27.0672 83.3522 27.258 82.554 27.3852C79.6524 27.8431 78.0179 26.7874 76.7254 24.0656C74.6601 19.7031 72.1006 15.5822 69.7439 11.3723C69.5538 11.0289 69.3511 10.6983 68.9203 10.393V35.0291H63.5859V2.06225C65.6132 2.06225 67.6659 2.02409 69.7186 2.1004C70.0353 2.11312 70.4154 2.67275 70.6308 3.05431C73.9125 8.93035 77.1689 14.8318 80.4253 20.7206C80.6534 21.1276 80.8941 21.5346 81.2235 22.1196H81.2109Z" fill="#A1A7B3"/>
</g>
<defs>
<clipPath id="clip0_2338_7579">
<rect width="172.866" height="34.7348" fill="white" transform="translate(0.0673828 0.968384)"/>
</clipPath>
</defs>
</svg>
