<svg width="207" height="45" viewBox="0 0 207 45" fill="none" xmlns="http://www.w3.org/2000/svg">
<g id="Microsoft" clip-path="url(#clip0_2338_7609)">
<path id="Vector" d="M61.8096 35.1444H57.5186V9.1973C57.7755 9.18465 58.0582 9.15935 58.3408 9.15935C59.9596 9.15935 61.5655 9.18465 63.1843 9.14669C63.8267 9.12139 64.1222 9.32381 64.3534 9.9184C66.666 15.7505 69.0171 21.5699 71.3553 27.3893C71.4709 27.6803 71.5994 27.9713 71.7921 28.4141C71.9591 28.0219 72.0748 27.7689 72.1904 27.5032C74.6186 21.6585 77.0467 15.8137 79.4492 9.95635C79.6933 9.36176 79.9888 9.10874 80.6697 9.13404C82.4427 9.18465 84.2156 9.14669 86.04 9.14669V35.1317H81.5819V15.3836C81.5177 15.371 81.4534 15.3457 81.3763 15.333C81.2607 15.586 81.1451 15.8264 81.0423 16.0794C78.5756 22.1898 76.096 28.3002 73.655 34.4359C73.4237 35.0305 73.1411 35.2709 72.4859 35.2076C71.6893 35.1317 70.7129 35.3974 70.1476 35.0305C69.608 34.6763 69.4796 33.7022 69.1969 32.9937C66.8844 27.364 64.5847 21.7217 62.2721 16.0794C62.1693 15.839 62.0537 15.6113 61.8096 15.3963V35.157V35.1444Z" fill="#A1A7B3"/>
<path id="Vector_2" d="M186.701 35.1191V20.1404H183.604V16.5349H186.688C186.688 15.6873 186.701 14.9283 186.688 14.1692C186.585 9.43774 190.324 6.43947 195.514 7.43889C195.758 7.4895 196.105 7.79312 196.118 7.98288C196.182 9.05821 196.144 10.1335 196.144 11.2721C195.566 11.133 195.077 10.9812 194.589 10.9053C192.688 10.6522 191.48 11.5251 191.274 13.3848C191.172 14.3716 191.262 15.3837 191.262 16.4464H197.878C197.878 15.2951 197.904 14.1312 197.878 12.98C197.865 12.474 198.019 12.2336 198.533 12.0944C199.792 11.7529 201.039 11.3607 202.388 10.9559V16.497H206.858V20.0772H202.426C202.413 20.4061 202.388 20.6591 202.388 20.9121C202.388 23.5562 202.388 26.2002 202.388 28.8443C202.388 31.7667 203.865 32.6775 206.64 31.5136C206.691 31.4883 206.743 31.501 206.897 31.4757C206.897 32.551 206.91 33.6263 206.871 34.689C206.871 34.8535 206.627 35.0938 206.434 35.1445C204.649 35.7137 202.85 35.8782 201.051 35.2457C199.137 34.5752 198.225 33.0823 198.032 31.1974C197.878 29.7045 197.904 28.1864 197.891 26.681C197.865 24.5177 197.891 22.3544 197.891 20.1404H191.249V35.0938H186.714L186.701 35.1191Z" fill="#A1A7B3"/>
<path id="Vector_3" d="M147.027 25.9218C146.899 26.7694 146.822 27.8321 146.565 28.8442C145.55 32.7913 142.441 35.2961 138.111 35.5745C136.762 35.663 135.349 35.5618 134.038 35.2455C130.043 34.2841 127.602 31.0201 127.486 26.5923C127.461 25.4158 127.563 24.2013 127.82 23.05C128.707 19.1029 131.803 16.4715 135.953 16.1806C137.353 16.0794 138.818 16.1173 140.205 16.383C143.815 17.0788 146.269 19.8114 146.796 23.5055C146.899 24.2392 146.937 24.973 147.027 25.9345V25.9218ZM142.428 25.7953C142.248 24.8465 142.158 23.7838 141.824 22.797C141.233 21.0006 139.91 19.9632 137.983 19.7734C135.863 19.5584 134.013 20.115 132.998 22.0759C131.739 24.5175 131.726 27.073 132.921 29.5526C133.794 31.3491 135.683 32.184 137.944 31.9689C140.025 31.7665 141.413 30.6533 141.953 28.6291C142.197 27.7435 142.261 26.82 142.428 25.7826V25.7953Z" fill="#A1A7B3"/>
<path id="Vector_4" d="M163.549 25.9978C163.664 25.1122 163.729 24.214 163.909 23.3284C164.769 19.2295 167.801 16.5095 172.054 16.1806C173.454 16.0668 174.932 16.0921 176.306 16.3704C179.814 17.0662 181.946 19.2928 182.782 22.6832C183.283 24.6567 183.257 26.6682 182.782 28.6544C181.818 32.7027 178.657 35.3215 174.238 35.5872C172.889 35.6631 171.476 35.5619 170.165 35.2456C166.298 34.3094 163.896 31.172 163.652 26.9719C163.639 26.6556 163.652 26.3393 163.652 26.0231C163.626 26.0231 163.587 26.0231 163.562 26.0231L163.549 25.9978ZM168.084 25.8839C168.367 27.0225 168.508 28.2243 168.958 29.2996C169.754 31.2226 171.617 32.1335 173.968 31.9816C176.024 31.8425 177.45 30.7798 178.041 28.8316C178.645 26.8707 178.67 24.8718 178.041 22.9109C177.398 20.9374 175.882 19.8494 173.775 19.7608C171.437 19.6596 169.703 20.5831 168.919 22.544C168.508 23.5814 168.367 24.72 168.084 25.8965V25.8839Z" fill="#A1A7B3"/>
<path id="Vector_5" d="M160.685 20.5958C159.207 20.2416 157.82 19.9 156.419 19.5964C156.111 19.5331 155.777 19.5964 155.456 19.6343C154.492 19.7735 153.786 20.3428 153.631 21.0892C153.439 21.9621 153.824 22.7718 154.736 23.2525C155.494 23.6573 156.304 23.961 157.075 24.3278C157.82 24.6947 158.591 25.0236 159.284 25.4791C162.483 27.5918 162.548 32.007 159.374 34.1956C157.164 35.7263 154.659 35.8528 152.09 35.4227C151.242 35.2836 150.42 35.0305 149.597 34.7649C149.379 34.689 149.109 34.398 149.096 34.1829C149.045 32.9558 149.071 31.716 149.071 30.3244C149.43 30.5395 149.662 30.6913 149.906 30.8178C151.614 31.7539 153.4 32.3485 155.391 32.007C156.201 31.8678 156.895 31.5642 157.113 30.6786C157.331 29.7804 157.023 29.0719 156.111 28.5406C155.353 28.0978 154.518 27.7689 153.721 27.3894C153.066 27.0731 152.398 26.7948 151.769 26.4405C148.235 24.4037 148.068 19.6849 151.447 17.3825C153.426 16.0415 155.661 15.8517 157.948 16.168C160.672 16.5349 160.672 16.5728 160.672 19.2295V20.5579L160.685 20.5958Z" fill="#A1A7B3"/>
<path id="Vector_6" d="M112.802 21.2283C108.948 19.1662 106.031 19.3054 104.053 21.5573C102.19 23.6826 102.048 27.7942 103.783 30.0081C105.62 32.3738 108.382 32.5256 112.789 30.4509C112.789 31.7033 112.802 32.9052 112.763 34.107C112.763 34.2715 112.506 34.5118 112.326 34.5877C108.896 36.0552 105.453 36.1818 102.177 34.2715C99.0935 32.475 97.9116 29.5527 97.9501 26.1369C97.9501 25.0616 98.1171 23.9609 98.3998 22.9362C99.6075 18.4957 103.616 15.7884 108.562 16.1047C109.783 16.1806 110.977 16.5348 112.185 16.7752C112.648 16.8638 112.815 17.1674 112.802 17.6481C112.763 18.7994 112.802 19.9632 112.802 21.2283Z" fill="#A1A7B3"/>
<path id="Vector_7" d="M116.193 16.5728H120.6V19.3687C120.6 19.3687 120.703 19.4066 120.754 19.4319C120.883 19.1916 121.011 18.9512 121.152 18.7235C122.283 16.7753 124.236 15.8897 126.471 16.2945C126.96 16.3831 127.229 16.5349 127.204 17.1042C127.165 18.306 127.204 19.5205 127.204 20.7603C126.471 20.5705 125.842 20.3681 125.199 20.2669C123.722 20.0265 122.566 20.5705 121.718 21.7597C120.934 22.8604 120.651 24.1128 120.651 25.4285C120.639 28.3635 120.651 31.2859 120.651 34.2209C120.651 34.5119 120.651 34.7902 120.651 35.1318H116.219V16.5728H116.193Z" fill="#A1A7B3"/>
<path id="Vector_8" d="M94.8796 35.1443H90.4473V16.5222C91.7963 16.5222 93.1581 16.5095 94.5199 16.5475C94.6484 16.5475 94.854 16.9523 94.8668 17.18C94.9053 18.4198 94.8796 19.6596 94.8796 20.8994C94.8796 25.3146 94.8796 29.7171 94.8796 34.1323V35.1317V35.1443Z" fill="#A1A7B3"/>
<path id="Vector_9" d="M92.6312 13.6378C91.1152 13.6125 89.9589 12.5245 89.9718 11.1203C89.9718 9.69073 91.2052 8.55215 92.7083 8.5648C94.2243 8.5648 95.4063 9.71604 95.4063 11.1582C95.4063 12.5878 94.1986 13.6631 92.6312 13.6378Z" fill="#A1A7B3"/>
<path id="Vector_10" d="M44.3888 23.2651H23.2676V44.0633H44.3888V23.2651Z" fill="#A1A7B3"/>
<path id="Vector_11" d="M21.2248 23.2651H0.103516V44.0633H21.2248V23.2651Z" fill="#A1A7B3"/>
<path id="Vector_12" d="M21.2248 0.442871H0.103516V21.241H21.2248V0.442871Z" fill="#A1A7B3"/>
<path id="Vector_13" d="M44.3888 0.442871H23.2676V21.241H44.3888V0.442871Z" fill="#A1A7B3"/>
</g>
<defs>
<clipPath id="clip0_2338_7609">
<rect width="206.793" height="43.6204" fill="white" transform="translate(0.103516 0.442871)"/>
</clipPath>
</defs>
</svg>
