<svg width="153" height="40" viewBox="0 0 153 40" fill="none" xmlns="http://www.w3.org/2000/svg">
<g id="Netflix" clip-path="url(#clip0_2338_7585)">
<path id="Vector" d="M0.97168 0.902346C4.82629 0.712628 7.39919 2.32049 8.69039 5.72594C10.6557 10.9195 12.6352 16.1273 15.0704 21.2212V1.00195H21.3365V36.7449C21.1799 36.873 21.066 37.0437 20.9235 37.0722C16.7366 37.7646 13.9074 36.1094 12.4358 32.1063C10.8693 27.8376 9.28852 23.5547 7.22355 19.3572V38.6089C5.00193 38.9077 3.02241 39.1781 0.97168 39.4626L0.97168 0.902346Z" fill="#A1A7B3"/>
<path id="Vector_2" d="M129.526 1.08727C129.968 0.916524 130.053 0.859609 130.139 0.859609C134.183 0.660404 136.96 2.42004 138.47 6.13853C139.04 7.54719 139.638 8.97007 140.449 10.9621C141.674 8.25863 142.856 6.03892 143.696 3.69116C144.494 1.45722 145.747 0.404284 148.197 0.788464C149.336 0.97344 150.518 0.816922 152.042 0.816922C149.521 6.40887 147.2 11.6736 144.736 16.8813C143.981 18.475 143.953 19.8125 144.651 21.4488C147.143 27.2969 149.464 33.2019 152.013 39.4768C149.635 39.1922 147.613 39.0642 145.647 38.6231C145.035 38.4808 144.437 37.5844 144.138 36.9014C142.813 33.8991 141.603 30.8399 140.122 27.24C138.783 30.1711 137.487 32.5473 136.59 35.0659C135.835 37.1717 134.696 37.7836 132.603 37.2571C131.492 36.9725 130.281 37.0294 128.743 36.9156C131.107 31.6367 133.243 26.6566 135.593 21.7903C136.519 19.8694 136.619 18.2615 135.736 16.2837C133.542 11.3178 131.62 6.25236 129.526 1.1015V1.08727Z" fill="#A1A7B3"/>
<path id="Vector_3" d="M27.7598 0.916504H45.1625V6.80726H34.1825V14.932H42.4139V20.9366H34.1683V30.0004C37.8567 29.7869 41.4028 29.5877 45.134 29.3743V35.2793C39.409 35.6777 33.6698 36.0903 27.774 36.503V0.916504H27.7598Z" fill="#A1A7B3"/>
<path id="Vector_4" d="M79.5399 20.6805V34.3118H73.3877V0.930786H90.7334V6.80732H79.7962V14.6047H88.0846V20.6805H79.5399Z" fill="#A1A7B3"/>
<path id="Vector_5" d="M95.1631 0.873901H101.315V28.9333C105.061 29.1752 108.507 29.4028 112.167 29.6447V35.5212C106.584 35.2651 100.931 34.9948 95.1631 34.7244V0.873901Z" fill="#A1A7B3"/>
<path id="Vector_6" d="M56.113 6.85004H49.5479V0.973511H68.8589V6.89273H62.4931V34.4968C60.3142 34.5964 58.3346 34.6817 56.1273 34.7813V6.85004H56.113Z" fill="#A1A7B3"/>
<path id="Vector_7" d="M117.735 0.930786H123.845V36.375C121.737 36.2327 119.815 36.1046 117.735 35.9623V0.930786Z" fill="#A1A7B3"/>
</g>
<defs>
<clipPath id="clip0_2338_7585">
<rect width="151.056" height="38.7737" fill="white" transform="translate(0.97168 0.703125)"/>
</clipPath>
</defs>
</svg>
